<?xml version="1.0" encoding="utf-8"?>
<!-- Generator: Adobe Illustrator 22.1.0, SVG Export Plug-In . SVG Version: 6.00 Build 0)  -->
<svg version="1.1" id="Layer_1" xmlns="http://www.w3.org/2000/svg" xmlns:xlink="http://www.w3.org/1999/xlink" x="0px" y="0px"
	 viewBox="0 0 127 153" style="enable-background:new 0 0 127 153;" xml:space="preserve">
<style type="text/css">
	.st0{fill:#FEFDFD;}
	.st1{fill:#F2807F;}
	.st2{fill:#EA1F26;}
	.st3{fill:#DF321F;}
	.st4{fill:#ED9877;}
	.st5{fill:#EE9087;}
	.st6{fill:#E24843;}
	.st7{fill:#FDF2F1;}
	.st8{fill:#FDF2F2;}
	.st9{fill:#822727;}
	.st10{fill:#832526;}
	.st11{fill:#FEE8E7;}
	.st12{fill:#FDE5E4;}
	.st13{fill:#DC817F;}
	.st14{fill:#AD2A29;}
	.st15{fill:#D0353D;}
</style>
<path class="st0" d="M73.3,146.4l0.1,0.1l0.3,0l0.2-0.1c0.5-0.1,1-0.2,1.5-0.3c1.7,0.3,3.3,0.1,4-1.9l-0.1-0.1
	c0.7,0.1,1.2-0.3,1.5-0.9c0.2,0,0.4,0,0.6-0.1c0.6,0,1.2,0.1,1.3-0.7c6.9-3.3,9.7-10.4,14.5-15.7c6-2.6,9.6-7.8,12.8-13
	c7.8-12.8,10.7-27.3,12.5-41.8c1-7.8,0.1-15.9,0-23.9c-1.3-5.8-3.2-11.3-6.9-16l-0.3,0.2l0.2-0.2c-0.2-0.3-0.5-0.5-0.7-0.8l-0.3,0
	l0.3,0c-0.4-0.4-0.7-0.8-1.1-1.2l0,0.1c-0.6-1.8-1.3-3.5-3.1-4.3c-0.3-0.3-0.6-0.6-0.8-0.9c-2.5-3.5-5.5-6.4-8.9-8.9
	c0,0-0.1,0-0.1,0c-0.5-0.5-1-0.9-1.5-1.4c0,0,0-0.1,0-0.1c-2.2-1.9-4.2-4.3-6.7-5.6C88.9,7,86.2,3,81.4,4c-1.5,0-3.1,0-4.6,0
	c-2.9-0.8-5.4,0.5-7.7,1.8c-3,1.8-5.6,2.5-8.8,0C58.8,4.6,56.6,4,54.4,4c-2.5-0.3-5-0.3-7.6,0c-4.4,0.5-8.1,2.5-11.1,5.9l-0.1,0
	c-2.4,0.9-4.4,2.3-5.9,4.4c-0.3,0.3-0.6,0.6-0.8,0.8c-1.7,0.7-2.8,2.1-3.8,3.6l0,0c-1,0.5-1.8,1.2-2.3,2.3l0,0
	c-1.5,1-2.9,2.1-3.6,3.8c-0.5,0.5-1.1,1.1-1.6,1.6c-1.6,1.5-3,3.1-3.8,5.1l0,0c-2.2,2.4-3.6,5.2-4.6,8.2c-0.6,0.4-0.7,0.9-0.5,1.6
	c-1.5,1.7-1.7,3.9-2.1,6c0,0.5-0.1,1-0.1,1.5c-0.1,0.5-0.2,1-0.3,1.4C5,53.5,5.8,56.8,5.8,60C5,64.3,6.1,68.5,6.6,72.7
	c-0.2,0.6-0.1,1.2,0.5,1.6c0.1,0.5,0.2,1,0.3,1.4c0,0.5,0,1,0,1.5c0,4.3,1.5,8.4,2.2,12.6c0,0.8-0.1,1.7,0.6,2.4
	c0.1,0.3,0.2,0.5,0.3,0.8c-0.2,0.4,0,0.6,0.4,0.8c0,0.2,0.1,0.5,0.1,0.7c0.2,0.3,0.3,0.6,0.5,0.9c0.1,0.4,0.2,0.9,0.3,1.3
	c-0.7,0.8-0.4,1.3,0.5,1.7c0.2,0.3,0.4,0.6,0.7,0.9c0.1-0.1,0.1-0.1,0.2-0.2c-0.1,0.1-0.1,0.1-0.2,0.2c0.3,0.7,0.5,1.5,0.8,2.2
	c0,0-0.1,0-0.1,0c0.1,0.7,0.3,1.3,0.4,2c-0.2,0.5,0,0.8,0.4,0.9c0.3,0.4,0.6,0.7,0.8,1.1c0.1,0.4,0.3,0.7,0.4,1.1
	c0.3,0.5,0.5,1.1,0.8,1.6l0,0.2c-0.1,1,0.5,1.5,1.2,2c0,0.9,0.5,1.6,1,2.2c0.2,0.4,0.4,0.9,0.7,1.3c1.4,2.1,2.8,4.1,4.2,6.2
	c0.2,0.8,0.7,1.3,1.5,1.5c0.5,0.5,1,1,1.5,1.5c0.2,0.8,0.6,1.3,1.4,1.4l0.1,0.1c0.2,0.2,0.4,0.4,0.7,0.7l0.1,0.1
	c0.9,2,2.8,2.7,4.7,3.4c0,0,0.1,0.1,0.1,0.1c0,0.9,0.5,1.3,1.3,1.6c0.9,1.4,1.5,2.9,3,3.8l0,0c0.6,0.9,0.7,2.2,2,2.4l0.1,0
	c0,0.5,0.3,0.7,0.8,0.7l0,0c0,0.5,0.3,0.7,0.7,0.7l0,0c0,0.5,0.3,0.7,0.8,0.7l0,0c-0.1,0.7,0.3,1.1,0.9,1.4l0,0
	c0.8,1.5,2,2.2,3.7,2.4l0,0c3.9,3.3,8.3,5.4,13.6,4.9c4.1,0.1,8.1,0.5,12.2-0.2C72.9,147.2,73.3,146.9,73.3,146.4z"/>
<path class="st1" d="M97.1,126.8c-4.7,5.3-7.6,12.3-14.5,15.7c-0.4,0.2-0.9,0.5-1.3,0.7c-0.2,0.1-0.4,0.1-0.6,0.1
	c-0.7,0-1.4,0-1.5,0.9c0,0,0.1,0.1,0.1,0.1c-2-0.7-3.2,0-3.9,1.9c-0.5,0.1-1,0.2-1.5,0.3c-0.1-0.2-0.3-0.3-0.4-0.5
	c0,0.2-0.1,0.4-0.1,0.6c0,0-0.1-0.1-0.1-0.1c-0.5,0.1-0.8,0.5-0.8,1c-4.1,0.7-8.1,0.3-12.2,0.2c-1.3-0.5-2.6-1.4-4-1.6
	c-3.5-0.3-6-3.5-9.6-3.3c0,0,0,0,0,0c-0.5-1.9-1.8-2.6-3.7-2.4c0,0,0,0,0,0c0-0.7-0.1-1.3-0.9-1.4c0,0,0,0,0,0
	c0-0.5-0.3-0.7-0.8-0.7c0,0,0,0,0,0c0-0.5-0.3-0.7-0.8-0.7c0,0,0,0,0,0c0-0.5-0.3-0.7-0.8-0.7c0,0-0.1,0-0.1,0
	c0.4-1.7-0.5-2.3-2-2.4c0,0,0,0,0,0c0.3-1.9-0.7-3-2.2-3.8c-0.6-0.7,0.5-3.5-2.1-1.6c0,0-0.1-0.1-0.1-0.1c0-1-0.1-2-1.1-2.6
	c-1.2-2.5-2.5-4.9-3.5-7.4c-5.2-12.4-7.4-25.5-9.8-38.6c0.2-2-0.2-4-0.8-5.9c-0.6-8.2-1.3-16.4-1.9-24.6c5.7-5,11.7-9.3,19.1-11.4
	c4.2,1.1,8,0.2,11.2-2.7c0,1.7,1.1,2.6,2.3,3.4c4,1.4,8,1.4,12,0L61,39c0.7,0,1.3,0,1.6-0.7c0,0,0,0,0,0c1.3,0,2.6,0,3.9,0
	c4,1.1,8.1,0.5,12.1,0.6c2.2,0,3.4-1.1,3.6-3.4c0.7-0.2,1,0.2,1.4,0.8c2.1,2.7,6.7,3.2,9.4,1.1c0.6,0.1,1.2,0.3,1.7,0.4
	c1.3,0.8,2.5,1.6,3.8,2.3c5,2.7,10,5.3,14,9.6c-0.4,5.7-1,11.3-1.1,17c-0.1,2.9-1.9,5.7-0.1,8.6c-1.1,2.9-1.7,5.9-2.2,8.9
	c-1.9,12-4.6,23.8-9.1,35.2C99,121.8,97,123.9,97.1,126.8z M67.1,65.5c0-4.2,0.1-8.5,0-12.7c-0.1-3.2-0.5-6.4-0.7-9.7
	c-0.1-0.9-0.2-1.8-1.4-1.8c-0.9,0-1.2,0.5-1.2,1.4c0.2,3.2,0.2,6.5,0.6,9.7c1,8.5,0.8,16.9,0.3,25.4c-0.8,12.6-2.6,25.2-1.9,37.9
	c0.2,3.8,1.1,7.6,2.2,11.3c0.3,1,0.7,2.1,2,1.8c1.6-0.4,0.5-1.7,0.3-2.5c-2.2-7.8-2.8-15.7-2.1-23.7C66.1,90.4,67.3,78,67.1,65.5z"
	/>
<path class="st2" d="M112.6,49.6c-4-4.2-9-6.8-14-9.6c-1.3-0.7-2.5-1.5-3.8-2.3C94,36.2,92.5,36,91,36.1l0,0
	c-0.6-1.6-1.7-1.8-3.2-1.3l-0.1,0c-1.5-2.8-4.4-1.7-6.7-2.3c0,0,0,0,0.1,0c-4.7-3.1-10.1-3.6-15.5-3.4c-1,0.2-2,0.3-3.1,0.5
	c-0.5,0.1-0.9,0.1-1.4,0.2c-0.6-0.5-1.1-0.4-1.6,0.2c-4.3,0.9-8.6,1.6-12.7,3.2c-3.9,1.3-8.2,1.9-11.4,5
	c-7.4,2.1-13.5,6.4-19.1,11.4c-4.4,1.9-6.2,4.1-5.3,7.2c1.8,5.9,3.8,11.6,5.8,17.5c0.6,2,0.1,4.4,2.2,5.9
	c2.4,13.1,4.5,26.2,9.8,38.6c1.1,2.5,2.3,4.9,3.5,7.4c-1.3,0.4-2.4-0.7-3.6-0.8c0,0-0.1-0.1-0.1-0.1c0-0.4-0.2-0.7-0.7-0.7
	c0,0-0.1-0.1-0.1-0.1c0-0.9-0.5-1.4-1.4-1.4c-0.5-0.5-1-1-1.5-1.5c-0.1-0.9-0.5-1.4-1.5-1.5c-1.4-2.1-2.8-4.1-4.2-6.2
	c0.7-0.9,0.3-1.3-0.7-1.3c-0.5-0.7-1.1-1.3-1-2.2c-0.1-0.8,0.5-2.1-1.2-2c0,0,0-0.2,0.1-0.2c0.5-0.9,0.2-1.4-0.8-1.6
	c-0.1-0.4-0.3-0.7-0.4-1.1c0.2-1.7,0.5-3.4-1.7-4c0,0,0.1,0,0.1,0c0.3-0.9,0.8-2-0.8-2.2c0.1-0.1,0.1-0.1,0.2-0.2
	c-0.1,0.1-0.1,0.1-0.2,0.2c0.4-0.8,0.3-1.4-0.5-1.8c-0.1-0.1-0.1-0.3,0-0.4c0.1-0.9,0.3-1.9-0.6-2.6c-0.3-0.2-0.6-0.5-0.9-0.7
	c-0.4-0.1-0.6-0.4-0.4-0.8c1.1-0.3,1.6-0.7,0.3-1.5c-0.1-0.2-0.1-0.3,0-0.5c-0.7-4.2-1.4-8.4-2.1-12.7c-0.1-0.7-0.7-1-1.3-1.1
	c0-0.5,0-1,0-1.5C8,75.1,7.9,74.7,7,74.3c-0.6-0.4-0.7-0.9-0.5-1.6c2.2-4.4,1.3-8.6-0.7-12.7c0-3.3-0.8-6.6,0.5-9.8
	c0.8-0.3,0.9-0.8,0.3-1.4c0-0.5,0.1-1,0.1-1.5c1.7-1.6,3-3.4,2.1-6c-0.1-0.6-0.1-1.2,0.5-1.6c2.7-2.1,4.1-4.9,4.6-8.2c0,0,0,0,0,0
	c2.1-1.1,3.7-2.6,3.8-5.1c0.5-0.5,1.1-1.1,1.6-1.6c2-0.5,3.3-1.7,3.6-3.8c0,0,0,0,0,0c1.5,0,2.2-0.8,2.3-2.3c0,0,0,0,0,0
	c2.5,0.1,3.8-1.1,3.8-3.6c0.3-0.3,0.6-0.6,0.8-0.8c3-0.1,4.4-2.4,5.9-4.4c0,0,0.1,0,0.1,0C40,9,43.2,6,46.8,4c2.5-0.3,5-0.3,7.6,0
	c0.2,0.4,0.4,1.1,0.7,1.2c4.8,1.4,9.3,6.4,14.8,1.4C70.4,6.2,71.3,6,72,6.1c2.1,0.3,3.5-0.7,4.8-2.1c1.5,0,3.1,0,4.6,0
	c5.4,2.5,10.6,5.5,15.1,9.4c0.8,0.7,1.7,1,2.7,1c0,0,0,0.1,0,0.1c-0.1,1.1-0.7,2.7,1.5,1.4c0,0,0.1,0,0.1,0c2.3,3.6,4.9,7,8.9,8.9
	c0.3,0.3,0.6,0.6,0.8,0.9c0.4,1.9,1.1,3.6,3.1,4.3c0,0,0-0.1,0-0.1c0,0.7,0.1,1.4,1.1,1.2l-0.3,0c0,0,0.3,0,0.3,0
	c-0.1,0.6,0.1,0.8,0.7,0.8l-0.2,0.2c0,0,0.3-0.2,0.3-0.2c-0.1,0.4-0.3,0.8-0.2,1.1c2,4.5,4.8,8.6,5.5,13.6c0.1,0.8,0.7,1.3,1.6,1.4
	c0.1,8,1,16.1,0,23.9c-1.9,14.5-4.7,29-12.5,41.8c-3.2,5.3-6.8,10.4-12.8,13c-0.1-2.9,1.9-5,2.9-7.5c4.5-11.4,7.3-23.2,9.1-35.2
	c0.5-3,1.1-6,2.2-8.9c2.8-4.9,3.6-10.5,5.6-15.7C119.1,53.5,118.6,52.3,112.6,49.6z"/>
<path class="st3" d="M76.8,4c-1.3,1.4-2.7,2.4-4.8,2.1c-0.7-0.1-1.6,0.1-2.1,0.5c-5.5,5-10-0.1-14.8-1.4c-0.3-0.1-0.5-0.8-0.7-1.2
	c2.2-0.1,4.4,0.6,5.9,1.8c3.1,2.5,5.8,1.8,8.8,0C71.4,4.5,73.9,3.3,76.8,4z"/>
<path class="st3" d="M99.2,14.4c-1,0-1.9-0.3-2.7-1C92,9.5,86.8,6.5,81.4,4c4.8-1,7.5,3,11.1,4.8C95.1,10.1,97,12.5,99.2,14.4z"/>
<path class="st3" d="M122.4,48c-0.8-0.1-1.5-0.6-1.6-1.4c-0.7-5-3.5-9.1-5.5-13.6c-0.1-0.3,0.1-0.7,0.2-1.1
	C119.2,36.7,121.1,42.2,122.4,48z"/>
<path class="st3" d="M5.8,60c2,4.1,3,8.3,0.7,12.7C6.1,68.5,5,64.3,5.8,60z"/>
<path class="st3" d="M109.7,24.8c-4-1.9-6.6-5.3-8.9-8.9C104.3,18.4,107.3,21.4,109.7,24.8z"/>
<path class="st3" d="M7.3,77.3c0.6,0.1,1.2,0.4,1.3,1.1c0.7,4.2,1.4,8.4,2.1,12.7c-0.4-0.4-0.8-0.7-1.1-1.1
	C8.8,85.7,7.3,81.6,7.3,77.3z"/>
<path class="st4" d="M46.7,142.7c3.6-0.2,6.1,3,9.6,3.3c1.4,0.1,2.7,1,4,1.6C55,148.1,50.6,146,46.7,142.7z"/>
<path class="st3" d="M46.8,4C43.2,6,40,9,35.8,9.9C38.7,6.5,42.4,4.5,46.8,4z"/>
<path class="st3" d="M13.9,31.5c-0.5,3.3-1.9,6.2-4.6,8.2C10.3,36.7,11.6,33.9,13.9,31.5z"/>
<path class="st3" d="M35.7,9.9c-1.5,2.1-3,4.3-5.9,4.4C31.3,12.2,33.3,10.8,35.7,9.9z"/>
<path class="st5" d="M28.7,125.5c1.2,0.1,2.3,1.2,3.6,0.8c1,0.6,1,1.6,1.1,2.6C31.6,128.2,29.7,127.5,28.7,125.5z"/>
<path class="st3" d="M28.9,15.2c0,2.5-1.3,3.7-3.8,3.6C26.1,17.3,27.1,15.9,28.9,15.2z"/>
<path class="st3" d="M8.8,41.3c0.9,2.5-0.4,4.3-2.1,6C7.1,45.2,7.2,43,8.8,41.3z"/>
<path class="st3" d="M17.6,26.4c-0.1,2.5-1.7,4-3.8,5.1C14.7,29.5,16.1,27.9,17.6,26.4z"/>
<path class="st3" d="M22.9,21c-0.3,2.1-1.6,3.3-3.6,3.8C20,23.1,21.4,22,22.9,21z"/>
<path class="st3" d="M113.7,30c-2-0.8-2.7-2.4-3.1-4.3C112.4,26.6,113.1,28.3,113.7,30z"/>
<path class="st4" d="M75.4,146.1c0.7-1.8,2-2.6,3.9-1.9C78.6,146.3,77.1,146.4,75.4,146.1z"/>
<path class="st4" d="M35.6,130.5c1.5,0.8,2.5,2,2.2,3.8c-1.5-0.8-2.2-2.4-3-3.8C35.1,130.5,35.3,130.5,35.6,130.5z"/>
<path class="st4" d="M43.1,140.3c1.9-0.2,3.1,0.5,3.7,2.4C45.1,142.5,43.9,141.7,43.1,140.3z"/>
<path class="st5" d="M35.6,130.5c-0.3,0-0.5,0-0.8,0c-0.8-0.3-1.3-0.7-1.3-1.6C36.1,126.9,35,129.8,35.6,130.5z"/>
<path class="st3" d="M25.1,18.8c0,1.5-0.8,2.3-2.3,2.3C23.3,20,24.1,19.2,25.1,18.8z"/>
<path class="st3" d="M100.7,15.9c-2.1,1.3-1.6-0.3-1.5-1.4C99.8,14.9,100.3,15.4,100.7,15.9z"/>
<path class="st4" d="M37.8,134.3c1.5,0.1,2.4,0.7,2,2.4C38.5,136.5,38.4,135.2,37.8,134.3z"/>
<path class="st3" d="M13.5,101.5c2.2,0.7,1.9,2.4,1.7,4c-0.3-0.4-0.6-0.7-0.8-1.1c-0.1-0.3-0.3-0.6-0.4-0.9
	C13.8,102.8,13.6,102.2,13.5,101.5z"/>
<path class="st5" d="M9.6,89.9c0.4,0.4,0.8,0.7,1.1,1.1c-0.1,0.2-0.1,0.3,0,0.5c-0.2,0.3-0.4,0.5-0.6,0.8
	C9.5,91.6,9.6,90.7,9.6,89.9z"/>
<path class="st5" d="M12.3,97.1c-0.1,0.1-0.1,0.3,0,0.4c-0.1,0.3-0.1,0.6-0.2,0.9c-0.9-0.4-1.2-0.9-0.5-1.7
	C11.9,96.8,12.1,96.9,12.3,97.1z"/>
<path class="st5" d="M23.5,120.2c0.9,0,1.4,0.6,1.5,1.5C24.1,121.5,23.6,121,23.5,120.2z"/>
<path class="st5" d="M26.5,123.2c0.9,0.1,1.4,0.5,1.4,1.4C27.1,124.5,26.6,124,26.5,123.2z"/>
<path class="st3" d="M12.3,97.1c-0.2-0.1-0.4-0.2-0.7-0.3c-0.1-0.4-0.2-0.9-0.3-1.3c0-0.3,0.1-0.5,0.1-0.8l0.2-0.2
	C12.6,95.2,12.4,96.1,12.3,97.1z"/>
<path class="st3" d="M12.7,99.3c1.6,0.2,1.1,1.3,0.8,2.2C13.3,100.8,13,100,12.7,99.3z"/>
<path class="st3" d="M16.4,108.5c1.7-0.2,1.1,1.1,1.2,2C16.9,110,16.2,109.5,16.4,108.5z"/>
<path class="st3" d="M10.1,92.3c0.2-0.3,0.4-0.5,0.6-0.8c1.2,0.8,0.8,1.2-0.3,1.5C10.3,92.8,10.2,92.5,10.1,92.3z"/>
<path class="st3" d="M12.1,98.4c0.1-0.3,0.1-0.6,0.2-0.9c0.8,0.4,0.9,1.1,0.5,1.8C12.5,99,12.3,98.7,12.1,98.4z"/>
<path class="st3" d="M6.6,48.8c0.7,0.6,0.5,1.1-0.3,1.4C6.4,49.8,6.5,49.3,6.6,48.8z"/>
<path class="st3" d="M15.6,106.6c1,0.2,1.3,0.7,0.8,1.6C16.2,107.7,15.9,107.2,15.6,106.6z"/>
<path class="st3" d="M18.6,112.7c1,0.1,1.4,0.4,0.7,1.3C19.1,113.5,18.9,113.1,18.6,112.7z"/>
<path class="st3" d="M114.7,31.2c-1,0.2-1.1-0.5-1.1-1.2C114,30.4,114.4,30.8,114.7,31.2z"/>
<path class="st3" d="M7,74.3c0.8,0.3,0.9,0.8,0.3,1.4C7.2,75.3,7.1,74.8,7,74.3z"/>
<path class="st4" d="M42.2,138.9c0.8,0.1,0.9,0.7,0.9,1.4C42.5,140,42.1,139.6,42.2,138.9z"/>
<path class="st4" d="M81.3,143.2c0.4-0.2,0.9-0.5,1.3-0.7C82.5,143.3,81.9,143.2,81.3,143.2z"/>
<path class="st4" d="M79.3,144.2c0.2-0.9,0.8-0.9,1.5-0.9C80.4,143.9,80,144.3,79.3,144.2z"/>
<path class="st3" d="M10.8,93.8c0.3,0.2,0.6,0.5,0.9,0.7c0,0-0.2,0.2-0.2,0.2c-0.2-0.1-0.4-0.1-0.6-0.1C10.8,94.3,10.8,94,10.8,93.8
	z"/>
<path class="st5" d="M10.9,94.5c0.2,0,0.4,0,0.6,0.1c0,0.3-0.1,0.5-0.1,0.8C11.2,95.1,11,94.8,10.9,94.5z"/>
<path class="st5" d="M13.9,103.5c0.1,0.3,0.3,0.6,0.4,0.9C14,104.2,13.8,103.9,13.9,103.5z"/>
<path class="st5" d="M28,124.7c0.4,0,0.7,0.2,0.7,0.7C28.4,125.2,28.2,125,28,124.7z"/>
<path class="st4" d="M40,136.7c0.5,0,0.7,0.3,0.8,0.7C40.2,137.4,40,137.1,40,136.7z"/>
<path class="st4" d="M40.7,137.4c0.5,0,0.7,0.3,0.8,0.7C41,138.1,40.7,137.9,40.7,137.4z"/>
<path class="st4" d="M41.5,138.2c0.5,0,0.7,0.3,0.8,0.7C41.7,138.9,41.5,138.7,41.5,138.2z"/>
<path class="st3" d="M115.4,32c-0.6,0.1-0.8-0.2-0.7-0.8C115,31.5,115.2,31.7,115.4,32z"/>
<path class="st4" d="M73.4,146.5c0-0.2,0.1-0.4,0.1-0.6c0.1,0.2,0.3,0.3,0.4,0.5c0,0-0.2,0.1-0.2,0.1L73.4,146.5z"/>
<path class="st4" d="M72.5,147.4c0-0.5,0.2-0.9,0.8-1C73.3,146.9,72.9,147.2,72.5,147.4z"/>
<path class="st6" d="M67.1,65.5c0.3,12.5-1,24.8-2.1,37.2c-0.7,8,0,15.9,2.1,23.7c0.2,0.8,1.3,2-0.3,2.5c-1.2,0.3-1.7-0.8-2-1.8
	c-1-3.7-2-7.5-2.2-11.3c-0.6-12.7,1.1-25.3,1.9-37.9c0.5-8.4,0.7-16.9-0.3-25.4c-0.4-3.2-0.3-6.5-0.6-9.7c-0.1-0.9,0.2-1.5,1.2-1.4
	c1.2,0,1.3,0.9,1.4,1.8c0.2,3.2,0.6,6.4,0.7,9.7C67.2,57.1,67.1,61.3,67.1,65.5z"/>
<path class="st7" d="M46.9,33.3c4.1-1.7,8.4-2.4,12.7-3.2c0.5-0.1,1.1-0.1,1.6-0.2c0.5-0.1,0.9-0.1,1.4-0.2c2.6,2.9,1.6,5.7,0,8.6
	c0,0,0,0,0,0C62,38.3,61.4,38.4,61,39c0,0,0.1,0,0.1,0c-4,0-8,0-12,0c-1.3-0.8-2.4-1.7-2.3-3.4C46.8,34.8,46.8,34.1,46.9,33.3z"/>
<path class="st8" d="M82.2,35.5c-0.2,2.2-1.4,3.4-3.6,3.4c-4-0.1-8.1,0.5-12.1-0.6c-2-2.9-2.5-5.7-0.1-8.6c4.9,1,9.8,2,14.8,3
	c0,0,0,0,0,0c0.3,0.4,0.6,0.8,1,1.2C82.1,34.4,82.2,34.9,82.2,35.5z"/>
<path class="st9" d="M112.6,49.6c6.1,2.7,6.5,3.9,4.3,9.8c-1.9,5.2-2.8,10.8-5.6,15.7c-1.7-2.9,0-5.7,0.1-8.6
	C111.6,60.9,112.2,55.3,112.6,49.6z"/>
<path class="st10" d="M16.9,74.3c-1.9-5.8-4-11.6-5.8-17.5c-0.9-3.1,0.9-5.3,5.3-7.2c0.6,8.2,1.3,16.4,1.9,24.6
	C17.8,74.3,17.3,74.3,16.9,74.3z"/>
<path class="st11" d="M46.9,33.3c0,0.7-0.1,1.5-0.1,2.2c-3.3,2.9-7,3.9-11.2,2.7C38.7,35.2,43,34.7,46.9,33.3z"/>
<path class="st12" d="M82.2,35.5c0-0.6-0.1-1.1-0.1-1.7c2-0.3,3.8,0.7,5.7,1.1c0,0,0.1,0,0.1,0c0.9,0.7,2,1.2,3.2,1.3c0,0,0,0,0,0
	c0.7,0.4,1.3,0.8,2,1.2c-2.7,2.1-7.3,1.6-9.4-1.1C83.2,35.7,82.9,35.3,82.2,35.5z"/>
<path class="st13" d="M66.4,29.6c-2.4,2.9-1.9,5.8,0.1,8.6c-1.3,0-2.6,0-3.9,0c1.6-2.9,2.6-5.7,0-8.6c1-0.2,2.1-0.3,3.1-0.5
	C65.9,29.4,66.2,29.5,66.4,29.6z"/>
<path class="st14" d="M16.9,74.3c0.5,0,1,0,1.4-0.1c0.6,1.9,1,3.9,0.8,5.9C17,78.8,17.5,76.3,16.9,74.3z"/>
<path class="st13" d="M49.1,39c4,0,8,0,12,0C57.1,40.4,53.1,40.3,49.1,39z"/>
<path class="st15" d="M93,37.4c-0.7-0.4-1.3-0.8-2-1.2c1.5-0.1,3,0,3.7,1.6C94.1,37.6,93.6,37.5,93,37.4z"/>
<path class="st13" d="M61,39c0.3-0.6,1-0.7,1.6-0.7C62.3,38.9,61.7,39,61,39z"/>
<path class="st15" d="M66.4,29.6c-0.3-0.1-0.5-0.3-0.8-0.4c5.5-0.2,10.8,0.3,15.5,3.4C76.3,31.6,71.3,30.6,66.4,29.6z"/>
<path class="st15" d="M87.8,34.9c-1.9-0.4-3.7-1.4-5.7-1.1c-0.3-0.4-0.6-0.8-1-1.2C83.4,33.3,86.3,32.1,87.8,34.9z"/>
<path class="st15" d="M91,36.2c-1.2-0.1-2.2-0.6-3.2-1.3C89.3,34.4,90.5,34.6,91,36.2z"/>
<path class="st13" d="M61.2,29.9c-0.5,0.1-1.1,0.1-1.6,0.2C60.1,29.5,60.6,29.4,61.2,29.9z"/>
</svg>
